<svg xmlns="http://www.w3.org/2000/svg" xmlns:xlink="http://www.w3.org/1999/xlink" viewBox="99 1458 238.441 58"><defs><style>.a{fill:none;}.b{clip-path:url(#a);}.c{fill:#299bb4;}.d{fill:#6fd7e8;}.e{fill:#ff6924;}.f{fill:#ff8325;}.g{fill:#31b6d1;}.h{fill:#0c0c0c;}</style><clipPath id="a"><path class="a" d="M0-78.32H238.441v58H0Z" transform="translate(0 78.32)"/></clipPath></defs><g transform="translate(99 1458)"><g class="b" transform="translate(0 0)"><g transform="translate(12.586 47.183)"><path class="c" d="M-.832-.664C9.018,6.668,6.9,8.223,7.888,8.256c.885-.029-.724-1.283,6.037-6.831A62.28,62.28,0,0,1-3.207-2.561q1.116.956,2.375,1.9" transform="translate(3.207 2.561)"/></g><g transform="translate(0 -0.001)"><path class="d" d="M-11.589-16.87-19.655-19.3a5.354,5.354,0,0,1-2.8-1.991,5.516,5.516,0,0,1-1-3.975,16.426,16.426,0,0,1-14.17-16.27A16.425,16.425,0,0,1-21.2-57.956,16.422,16.422,0,0,1-4.834-42.924l.158-.524a2.225,2.225,0,0,1,2.771-1.488L2.552-43.6a22.067,22.067,0,0,0-6.481-14.34,24.029,24.029,0,0,0-17.1-7.086,24.03,24.03,0,0,0-17.105,7.086,22.184,22.184,0,0,0-6.533,16.145,26.847,26.847,0,0,0,2.126,10.131,23.708,23.708,0,0,0,8.471,9.9c.5.33,1.017.645,1.546.938a22.787,22.787,0,0,0,2.492,1.2.2.2,0,0,0-.005.036c.222.076.45.155.681.233a23.558,23.558,0,0,0,2.986.9,72.13,72.13,0,0,0,11.858,2.1q1.146.114,2.356.2c.283-.211.618-.407.891-.621" transform="translate(44.669 65.021)"/></g><g transform="translate(36.044 19.99)"><path class="e" d="M-3.916-.5c.046.664.063,1.332.049,2L-8.921-.025a.325.325,0,0,0-.405.216l-.8,2.649,6.009,1.805A28.422,28.422,0,0,1-8.195,15.7c-.236.378-.468.744-.7,1.1a72.236,72.236,0,0,1-6.194-4.668A16.357,16.357,0,0,0-11.243,1.56c0-.47-.019-.933-.059-1.391l.158-.524A2.226,2.226,0,0,1-8.373-1.843Z" transform="translate(15.093 1.938)"/></g><g transform="translate(25.88 21.864)"><path class="f" d="M-4.889-.081c.041.458.059.921.059,1.391A16.355,16.355,0,0,1-8.68,11.877c-4.572-3.808-8.175-7.5-8.246-7.574-.486-.483-1.166-1.166-1.918-1.917A5.449,5.449,0,0,1-12.606-.087l7.08,2.129Z" transform="translate(18.844 0.314)"/></g><g transform="translate(11.715 15.864)"><path class="g" d="M-7.105-6.559c-2.112-1.854-4.8-4.448-7.234-6.855v0c-2.159-2.159-5.875-5.887-6.17-6.217l6.919-2.529a.138.138,0,0,0,.084-.084.143.143,0,0,0-.015-.116,2.051,2.051,0,0,0-1.141-.923,1.608,1.608,0,0,0-.789-.048l-7.908.652c-1.617-1.8-2.613-2.379-3.167-2.545a.847.847,0,0,0-.515-.038.136.136,0,0,0-.061.047c-.851,1.158,1.421,3.877,1.8,4.312l-1.982,7.4a1.872,1.872,0,0,0,.167,1.559l.435.649a.137.137,0,0,0,.12.061.138.138,0,0,0,.113-.072l3.44-6.554.016.015c.055.059,3.717,3.849,7.667,7.714L-17.7-2.252a5.726,5.726,0,0,0-.187.867,16.187,16.187,0,0,0,2.254.155A16.353,16.353,0,0,0-5.207-4.961c-.892-.724-1.55-1.292-1.9-1.6" transform="translate(27.386 25.279)"/></g><g transform="translate(21.167 36.182)"><path class="c" d="M-4.459,0a77.16,77.16,0,0,0,6.68,4.877,41.374,41.374,0,0,1-7.172,7.186l-8.387-2.522a5.447,5.447,0,0,1-3.8-5.966,16.187,16.187,0,0,0,2.254.155A16.354,16.354,0,0,0-4.459,0" transform="translate(17.186)"/></g><g transform="translate(61.623 14.842)"><path class="h" d="M0-1.086a3.076,3.076,0,0,1,3.1-3.1,3.076,3.076,0,0,1,3.1,3.1V7.2H17.627V-1.086a3.076,3.076,0,0,1,3.1-3.1,3.074,3.074,0,0,1,3.1,3.1V21.366a3.1,3.1,0,1,1-6.2,0V12.914H6.2v8.453a3.078,3.078,0,0,1-3.1,3.1,3.078,3.078,0,0,1-3.1-3.1Z" transform="translate(0 4.187)"/></g><g transform="translate(91.081 21.443)"><path class="h" d="M-4.919-4.976V-6.063a9.475,9.475,0,0,0-3.9-.8c-2.616,0-4.225,1.043-4.225,2.978v.079c0,1.65,1.369,2.615,3.338,2.615,2.859,0,4.788-1.568,4.788-3.781M-18.961-3.567v-.081c0-4.709,3.581-6.879,8.691-6.879A15.305,15.305,0,0,1-5-9.645v-.362c0-2.534-1.569-3.943-4.628-3.943a14.119,14.119,0,0,0-4.225.6,2.577,2.577,0,0,1-.886.163,2.492,2.492,0,0,1-2.536-2.495,2.533,2.533,0,0,1,1.651-2.374,18.72,18.72,0,0,1,6.88-1.126c3.341,0,5.756.886,7.285,2.413C.153-15.158.875-12.782.875-9.886V-.068A2.937,2.937,0,0,1-2.1,2.872,2.739,2.739,0,0,1-5.038.337V.295a8.292,8.292,0,0,1-6.52,2.736c-4.063,0-7.4-2.333-7.4-6.6" transform="translate(18.961 19.181)"/></g><g transform="translate(116.995 21.28)"><path class="h" d="M0-1.128A3.055,3.055,0,0,1,3.059-4.184,3.054,3.054,0,0,1,6.116-1.128v.244C7.525-2.7,9.336-4.347,12.435-4.347c4.627,0,7.324,3.057,7.324,8.009V14.808a3.059,3.059,0,1,1-6.118,0V5.593c0-2.9-1.366-4.386-3.7-4.386S6.116,2.7,6.116,5.593v9.215a3.058,3.058,0,1,1-6.116,0Z" transform="translate(0 4.347)"/></g><g transform="translate(141.903 13.636)"><path class="h" d="M-2.143-6.584V-6.5c0,3.581,2.414,5.954,5.271,5.954S8.359-2.923,8.359-6.5v-.081c0-3.581-2.375-5.956-5.232-5.956s-5.271,2.333-5.271,5.956M14.4,1.423a3.058,3.058,0,1,1-6.117,0V1.141a7.926,7.926,0,0,1-6.721,3.5C-3.472,4.643-8.261.7-8.261-6.5v-.081c0-7.2,4.708-11.148,9.819-11.148a8.291,8.291,0,0,1,6.721,3.219v-7.806a3.057,3.057,0,0,1,3.057-3.058,3.057,3.057,0,0,1,3.06,3.058Z" transform="translate(8.261 25.377)"/></g><g transform="translate(170.754 13.673)"><path class="h" d="M-.128-3.793A3.054,3.054,0,0,1,2.93-6.849,3.054,3.054,0,0,1,5.989-3.793V12.143a3.058,3.058,0,1,1-6.116,0ZM-.492-11.76c0-1.771,1.491-2.859,3.422-2.859s3.421,1.088,3.421,2.859v.08c0,1.77-1.489,2.9-3.421,2.9S-.492-9.91-.492-11.68Z" transform="translate(0.492 14.619)"/></g><g transform="translate(183.191 14.601)"><path class="g" d="M0-5.132v-.081A14.456,14.456,0,0,1,14.767-19.779a15.605,15.605,0,0,1,9.62,2.735,3.1,3.1,0,0,1,1.287,2.5,3.058,3.058,0,0,1-3.057,3.059,3.026,3.026,0,0,1-1.893-.644,9.856,9.856,0,0,0-6.155-1.933c-4.508,0-8.09,3.984-8.09,8.773v.08c0,5.153,3.539,8.933,8.531,8.933a9.884,9.884,0,0,0,5.835-1.689V-1.991H16.659a2.664,2.664,0,0,1-2.7-2.656,2.7,2.7,0,0,1,2.7-2.7h7.083a3.072,3.072,0,0,1,3.1,3.1V2.6a4.191,4.191,0,0,1-2.172,3.943,18.724,18.724,0,0,1-9.86,2.816C6.035,9.354,0,3.2,0-5.132" transform="translate(0 19.779)"/></g><g transform="translate(215.101 21.281)"><path class="g" d="M-6.063-3.962v-.081A5.731,5.731,0,0,0-11.739-10c-3.5,0-5.593,2.694-5.593,5.874v.081a5.73,5.73,0,0,0,5.674,5.954c3.5,0,5.6-2.695,5.6-5.873m-17.305,0v-.081c0-6.2,4.989-11.229,11.71-11.229,6.682,0,11.63,4.949,11.63,11.148v.081c0,6.2-4.989,11.225-11.711,11.225-6.678,0-11.629-4.951-11.629-11.144" transform="translate(23.368 15.272)"/></g></g></g></svg>