<svg xmlns="http://www.w3.org/2000/svg" xmlns:xlink="http://www.w3.org/1999/xlink" viewBox="1818.676 1476 26.73 21.5"><defs><style>.a{fill:none;}.b{clip-path:url(#a);}.c{fill:#898989;}</style><clipPath id="a"><path class="a" d="M0-74H26.73v21.5H0Z" transform="translate(0 74)"/></clipPath></defs><g class="b" transform="translate(1818.676 1476)"><g transform="translate(0 0)"><path class="c" d="M-64.45-24.157-69-28.755a1.162,1.162,0,0,0-1.644-.008,1.162,1.162,0,0,0-.008,1.643l2.6,2.624-14.1.033a1.162,1.162,0,0,0-1.16,1.165,1.162,1.162,0,0,0,1.162,1.159h0l14.085-.033-2.587,2.612a1.162,1.162,0,0,0,.008,1.644,1.158,1.158,0,0,0,.818.336A1.157,1.157,0,0,0-69-17.923l4.554-4.6a1.163,1.163,0,0,0,0-1.635m-8.961,5.13v5.315A1.117,1.117,0,0,1-74.52-12.55H-89.682a1.162,1.162,0,0,1-1.162-1.162V-32.888a1.162,1.162,0,0,1,1.162-1.162H-74.52a1.117,1.117,0,0,1,1.108,1.162v5.315a1.162,1.162,0,0,1-1.162,1.162,1.162,1.162,0,0,1-1.162-1.162v-4.153H-88.52v16.851h12.784v-4.153a1.162,1.162,0,0,1,1.162-1.162,1.162,1.162,0,0,1,1.162,1.162" transform="translate(90.844 34.05)"/></g></g></svg>