<svg xmlns="http://www.w3.org/2000/svg" viewBox="780.282 4270.512 61.15 58.439"><defs><style>.a{fill:#0aaccc;}</style></defs><g transform="translate(780.282 4270.512)"><path class="a" d="M44.747,22.878l9.213,3.384L46.3,47.122c-.717,1.962-4.605,8.1-7.313,9.354l-.657,1.792a1.127,1.127,0,0,1-1.054.738,1.162,1.162,0,0,1-.387-.069,1.125,1.125,0,0,1-.667-1.443l.621-1.694c-1.374-2.669-.349-10.422.253-12.061ZM58.079.806c-2.533-.927-5.5.989-6.347,3.305L46.183,19.229l9.21,3.379L60.935,7.492C61.633,5.6,60.617,1.735,58.079.806ZM41.411,22.1A2.245,2.245,0,0,0,44.3,20.77L50.155,4.978a2.248,2.248,0,0,0-4.216-1.561L40.084,19.21A2.244,2.244,0,0,0,41.411,22.1ZM31.985,51.708a8.736,8.736,0,0,0-2.576-1.826,6.725,6.725,0,0,0-2.7-.485c-.074,0-.16,0-.246,0A3.493,3.493,0,0,0,23.755,47.1a5.488,5.488,0,0,0-4.232,1.123c.088-.5.234-1.1.342-1.529a9.854,9.854,0,0,0,.435-4.163A2.4,2.4,0,0,0,18.115,40.6c-2.784-.155-5.059,1.343-7.064,2.7-2.105,1.422-3.456,2.27-4.8,1.79-1.639-.583-1.8-5.021-1.016-8.974.7-3.561,2.017-10.19,5.379-13.2,1.133-1.013,2.772-2.11,4.12-1.577,1.584.621,2.894,3.231,3.186,6.34a2.39,2.39,0,0,0,4.758-.447c-.473-5.066-2.849-9.029-6.2-10.345-2.005-.779-5.193-.989-9.057,2.469C3.222,23.119,1.668,29.5.543,35.188-.021,38.027-1.4,47.447,4.646,49.6c3.68,1.312,6.67-.712,9.072-2.332.44-.3.872-.588,1.293-.848-.4,1.733-.648,3.587.4,5.15,1.561,2.347,3.766,2.6,6.553.767.108-.069.232-.151.349-.232a3.243,3.243,0,0,0,1.544,1.541,6.319,6.319,0,0,0,2.739.535,3.792,3.792,0,0,1,.87.074,4.15,4.15,0,0,1,1.231.93,15.2,15.2,0,0,0,1.314,1.138,2.389,2.389,0,0,0,2.863-3.826A11.293,11.293,0,0,1,31.985,51.708Z" transform="translate(0 -0.567)"/></g></svg>